<svg xmlns="http://www.w3.org/2000/svg" viewBox="0 0 480 190" width="480" height="190">
  <defs>
    <linearGradient id="ink" x1="0" y1="0" x2="1" y2="0">
      <stop offset="0" stop-color="#1a2c52"/><stop offset="1" stop-color="#0b1838"/>
    </linearGradient>
  </defs>
  <g fill="none" stroke="url(#ink)" stroke-linecap="round" stroke-linejoin="round">
    <!-- Bold capital S flourish (tall, confident opening) -->
    <path d="M150 40
             C 120 18, 70 26, 64 58
             C 60 82, 92 90, 96 70
             C 99 54, 78 52, 70 64
             M150 40
             C 156 70, 120 96, 78 110
             C 50 119, 70 150, 110 138"
          stroke-width="6"/>
    <!-- flowing middle body — organic, varied -->
    <path d="M104 118
             C 140 96, 150 130, 176 120
             C 196 112, 188 86, 206 92
             C 224 98, 214 132, 238 124
             C 256 118, 250 96, 268 100"
          stroke-width="5"/>
    <!-- tall ascender loop (h/b) -->
    <path d="M268 100
             C 286 104, 300 40, 312 44
             C 322 47, 300 120, 296 124
             C 290 130, 312 108, 332 112
             C 352 116, 344 96, 360 100"
          stroke-width="5"/>
    <!-- tapering trailing scrawl -->
    <path d="M360 100
             C 384 106, 372 132, 396 122
             C 414 114, 410 98, 430 104
             C 446 109, 452 100, 466 96"
          stroke-width="4.5"/>
    <!-- underline swash -->
    <path d="M70 162 C 200 144, 340 176, 462 140" stroke-width="3"/>
    <!-- dot accent -->
    <circle cx="466" cy="92" r="3.2" fill="#1a2c52" stroke="none"/>
  </g>
</svg>
